<svg fill="none" height="15" viewBox="0 0 14 15" width="14" xmlns="http://www.w3.org/2000/svg">
    <path
        d="M7.76398 14.25C7.76398 14.4489 7.6835 14.6397 7.54024 14.7803C7.39698 14.921 7.20268 15 7.00008 15H3.94449C2.93187 14.9988 1.96107 14.6033 1.24504 13.9003C0.529012 13.1973 0.126213 12.2442 0.125 11.25V3.75C0.126213 2.7558 0.529012 1.80267 1.24504 1.09966C1.96107 0.396661 2.93187 0.00119089 3.94449 0H7.00008C7.20268 0 7.39698 0.0790176 7.54024 0.21967C7.6835 0.360322 7.76398 0.551088 7.76398 0.75C7.76398 0.948912 7.6835 1.13968 7.54024 1.28033C7.39698 1.42098 7.20268 1.5 7.00008 1.5H3.94449C3.33669 1.5 2.75379 1.73705 2.32402 2.15901C1.89424 2.58097 1.6528 3.15326 1.6528 3.75V11.25C1.6528 11.8467 1.89424 12.419 2.32402 12.841C2.75379 13.2629 3.33669 13.5 3.94449 13.5H7.00008C7.20268 13.5 7.39698 13.579 7.54024 13.7197C7.6835 13.8603 7.76398 14.0511 7.76398 14.25ZM13.6513 6.96975L10.5957 3.96975C10.5253 3.89812 10.441 3.84098 10.3478 3.80167C10.2546 3.76237 10.1544 3.74168 10.0529 3.74081C9.95149 3.73995 9.8509 3.75892 9.75702 3.79663C9.66314 3.83434 9.57785 3.89003 9.50613 3.96045C9.43441 4.03087 9.37768 4.11461 9.33927 4.20678C9.30086 4.29896 9.28154 4.39772 9.28242 4.4973C9.2833 4.59689 9.30437 4.6953 9.34441 4.7868C9.38444 4.87831 9.44264 4.96106 9.5156 5.03025L11.2672 6.75H5.47229C5.26969 6.75 5.07539 6.82902 4.93213 6.96967C4.78887 7.11032 4.70839 7.30109 4.70839 7.5C4.70839 7.69891 4.78887 7.88968 4.93213 8.03033C5.07539 8.17098 5.26969 8.25 5.47229 8.25H11.2672L9.5156 9.96975C9.44264 10.0389 9.38444 10.1217 9.34441 10.2132C9.30437 10.3047 9.2833 10.4031 9.28242 10.5027C9.28154 10.6023 9.30086 10.701 9.33927 10.7932C9.37768 10.8854 9.43441 10.9691 9.50613 11.0395C9.57785 11.11 9.66314 11.1657 9.75702 11.2034C9.8509 11.2411 9.95149 11.2601 10.0529 11.2592C10.1544 11.2583 10.2546 11.2376 10.3478 11.1983C10.441 11.159 10.5253 11.1019 10.5957 11.0303L13.6513 8.03025C13.7945 7.8896 13.875 7.69887 13.875 7.5C13.875 7.30113 13.7945 7.1104 13.6513 6.96975Z"
        fill="#5297FF"/>
</svg>
