<svg fill="none" height="13" viewBox="0 0 18 13" width="18" xmlns="http://www.w3.org/2000/svg">
    <path
        d="M3.29828 2.82735L3.70515 3.11796L3.70515 3.11796L3.29828 2.82735ZM3.47265 2.79828L3.18204 3.20515L3.18204 3.20515L3.47265 2.79828ZM3.32735 3.00172L3.61796 2.59485L3.61796 2.59485L3.32735 3.00172ZM8.92735 7.00172L8.63673 7.40858L8.92735 7.00172ZM9.07265 7.00172L8.78204 6.59485L8.78203 6.59485L9.07265 7.00172ZM14.6727 3.00172L14.382 2.59485L14.382 2.59485L14.6727 3.00172ZM14.7017 2.82735L15.1086 2.53673L15.1086 2.53672L14.7017 2.82735ZM14.5273 2.79828L14.2367 2.39142L14.2367 2.39142L14.5273 2.79828ZM9 6.74639L8.70938 7.15325C8.88323 7.27743 9.11677 7.27743 9.29062 7.15325L9 6.74639ZM0.5 10.5C0.5 11.8807 1.61929 13 3 13V12C2.17157 12 1.5 11.3284 1.5 10.5H0.5ZM0.5 2.5V10.5H1.5V2.5H0.5ZM3 0C1.61929 0 0.5 1.11929 0.5 2.5H1.5C1.5 1.67157 2.17157 1 3 1V0ZM15 0H3V1H15V0ZM17.5 2.5C17.5 1.11929 16.3807 0 15 0V1C15.8284 1 16.5 1.67157 16.5 2.5H17.5ZM17.5 10.5V2.5H16.5V10.5H17.5ZM15 13C16.3807 13 17.5 11.8807 17.5 10.5H16.5C16.5 11.3284 15.8284 12 15 12V13ZM3 13H15V12H3V13ZM3.70515 3.11796C3.58477 3.28649 3.35057 3.32553 3.18204 3.20515L3.76327 2.39142C3.48239 2.19079 3.09205 2.25584 2.89142 2.53673L3.70515 3.11796ZM3.61796 2.59485C3.78649 2.71523 3.82553 2.94943 3.70515 3.11796L2.89142 2.53673C2.69079 2.81761 2.75584 3.20795 3.03673 3.40858L3.61796 2.59485ZM9.21796 6.59485L3.61796 2.59485L3.03673 3.40858L8.63673 7.40858L9.21796 6.59485ZM8.78203 6.59485C8.91242 6.50172 9.08758 6.50172 9.21796 6.59485L8.63673 7.40858C8.85404 7.56381 9.14596 7.56381 9.36328 7.40858L8.78203 6.59485ZM14.382 2.59485L8.78204 6.59485L9.36327 7.40858L14.9633 3.40858L14.382 2.59485ZM14.2948 3.11796C14.1745 2.94944 14.2135 2.71523 14.382 2.59485L14.9633 3.40859C15.2442 3.20795 15.3092 2.8176 15.1086 2.53673L14.2948 3.11796ZM14.818 3.20515C14.6494 3.32553 14.4152 3.28649 14.2949 3.11797L15.1086 2.53672C14.908 2.25584 14.5176 2.19079 14.2367 2.39142L14.818 3.20515ZM9.29062 7.15325L14.818 3.20515L14.2367 2.39142L8.70938 6.33952L9.29062 7.15325ZM3.18204 3.20515L8.70938 7.15325L9.29062 6.33952L3.76327 2.39142L3.18204 3.20515Z"
        fill="#83888F"/>
</svg>
