<svg fill="none" height="17" viewBox="0 0 18 17" width="18" xmlns="http://www.w3.org/2000/svg">
    <g clip-path="url(#clip0_129_1206)">
        <path
            d="M1.45439 1L16.5453 16M7.19252 6.76137C6.75435 7.21133 6.48469 7.82433 6.48469 8.5C6.48469 9.88075 7.61079 11 8.99982 11C9.68939 11 10.3142 10.7242 10.7685 10.2775M4.38873 4.03929C2.79639 5.08362 1.58353 6.65328 1 8.5C2.06831 11.8809 5.24604 14.3333 8.99999 14.3333C10.6674 14.3333 12.2212 13.8495 13.5269 13.0153M8.16144 2.70782C8.43726 2.68061 8.71703 2.66667 8.99999 2.66667C12.754 2.66667 16.003 5 17 8.5C16.7647 9.245 16.4268 9.94483 16.003 10.5833"
            stroke="#83888F" stroke-linecap="round" stroke-linejoin="round"/>
    </g>
    <defs>
        <clipPath id="clip0_129_1206">
            <rect fill="white" height="17" width="18"/>
        </clipPath>
    </defs>
</svg>
