<svg fill="none" height="21" viewBox="0 0 16 21" width="16" xmlns="http://www.w3.org/2000/svg">
    <path
        d="M8 19.5713C11.5899 19.5713 14.5 16.6612 14.5 13.0713H13.5C13.5 16.1089 11.0376 18.5713 8 18.5713V19.5713ZM1.5 13.0713C1.5 16.6612 4.41015 19.5713 8 19.5713V18.5713C4.96243 18.5713 2.5 16.1089 2.5 13.0713H1.5ZM8 6.57132C4.41015 6.57132 1.5 9.48147 1.5 13.0713H2.5C2.5 10.0338 4.96243 7.57132 8 7.57132V6.57132ZM14.5 13.0713C14.5 9.48147 11.5899 6.57132 8 6.57132V7.57132C11.0376 7.57132 13.5 10.0338 13.5 13.0713H14.5ZM8 11.357H9C9 10.8048 8.55229 10.357 8 10.357V11.357ZM8 11.357V10.357C7.44771 10.357 7 10.8048 7 11.357H8ZM8 14.7856V11.357H7V14.7856H8ZM8 14.7856H7C7 15.3379 7.44771 15.7856 8 15.7856V14.7856ZM8 14.7856V15.7856C8.55229 15.7856 9 15.3379 9 14.7856H8ZM8 11.357V14.7856H9V11.357H8ZM11.5 7.92847V4.92847H10.5V7.92847H11.5ZM11.5 4.92847C11.5 2.99547 9.933 1.42847 8 1.42847V2.42847C9.38071 2.42847 10.5 3.54776 10.5 4.92847H11.5ZM8 1.42847C6.067 1.42847 4.5 2.99547 4.5 4.92847H5.5C5.5 3.54776 6.61929 2.42847 8 2.42847V1.42847ZM4.5 4.92847V7.92847H5.5V4.92847H4.5Z"
        fill="#83888F"/>
</svg>
