<svg fill="none" height="24" viewBox="0 0 24 24" width="24" xmlns="http://www.w3.org/2000/svg">
  <path d="M9 5H8C6.89543 5 6 5.89543 6 7V19C6 20.1046 6.89543 21 8 21H16C17.1046 21 18 20.1046 18 19V7C18 5.89543 17.1046 5 16 5H15" stroke="#5297FF" stroke-linecap="round"/>
  <path d="M9 5C9 3.89543 9.89543 3 11 3H13C14.1046 3 15 3.89543 15 5C15 6.10457 14.1046 7 13 7H11C9.89543 7 9 6.10457 9 5Z" stroke="#5297FF"/>
  <path d="M9 12L11 14L15 10" stroke="#5297FF" stroke-linecap="round" stroke-linejoin="round"/>
</svg>
