<svg fill="none" height="24" viewBox="0 0 24 24" width="24" xmlns="http://www.w3.org/2000/svg">
    <path
        d="M16.3636 10.1579C17.5687 10.1579 18.5455 9.33315 18.5455 8.31579C18.5455 7.29842 17.5687 6.47368 16.3636 6.47368M7.63636 10.1579C6.43138 10.1579 5.45455 9.33315 5.45455 8.31579C5.45455 7.29842 6.43138 6.47368 7.63636 6.47368M17.8182 17.5263C19.094 17.2429 20 16.525 20 15.6842C20 14.8434 19.094 14.1256 17.8182 13.8421M6.18182 17.5263C4.906 17.2429 4 16.525 4 15.6842C4 14.8434 4.906 14.1256 6.18182 13.8421M14.9091 7.94737C14.9091 9.57516 13.6066 10.8947 12 10.8947C10.3934 10.8947 9.09091 9.57516 9.09091 7.94737C9.09091 6.31958 10.3934 5 12 5C13.6066 5 14.9091 6.31958 14.9091 7.94737ZM16.3636 16.0526C16.3636 17.6804 14.41 19 12 19C9.59003 19 7.63636 17.6804 7.63636 16.0526C7.63636 14.4248 9.59003 13.1053 12 13.1053C14.41 13.1053 16.3636 14.4248 16.3636 16.0526Z"
        stroke="#5297FF" stroke-linecap="round"/>
</svg>
